<svg class="S" id="Suno" version="1.0" xmlns="http://www.w3.org/2000/svg" width="479.000000pt" height="676.000000pt" viewBox="0 0 479.000000 676.000000" preserveAspectRatio="xMidYMid meet">
   
   <g transform="translate(0.000000,676.000000) scale(0.100000,-0.100000)" fill="#e16428" stroke="none">
   <path d="M1830 6754 c-626 -75 -1036 -267 -1416 -664 -115 -120 -181 -212
   -259 -364 -109 -212 -155 -409 -155 -666 0 -303 68 -537 228 -782 l57 -88 895
   1 895 0 -40 21 c-84 43 -357 200 -452 259 -506 315 -707 554 -729 866 -18 250
   80 473 296 676 182 172 378 274 627 328 139 29 442 37 610 15 303 -40 576
   -136 841 -297 285 -173 486 -391 632 -684 116 -235 189 -478 245 -817 l6 -38
   104 0 105 0 0 1120 0 1121 -107 -3 -107 -3 -8 -35 c-55 -220 -161 -322 -337
   -323 -84 -1 -178 22 -332 80 -376 140 -624 211 -884 254 -105 17 -182 22 -405
   24 -151 2 -291 1 -310 -1z"></path>
   <path d="M3211 2374 c138 -94 199 -143 299 -243 170 -171 288 -388 320 -591
   45 -290 -77 -586 -336 -813 -221 -192 -477 -296 -833 -337 -134 -16 -510 -8
   -646 14 -383 61 -725 201 -1035 425 -98 70 -273 248 -332 337 -138 207 -263
   535 -344 899 -13 61 -27 120 -29 133 -5 22 -8 23 -108 20 l-102 -3 -3 -1107
   -2 -1108 104 0 105 0 16 74 c9 41 33 107 53 147 32 63 44 76 89 102 42 23 70
   30 130 34 102 7 215 -16 583 -119 806 -224 857 -233 1375 -233 300 1 356 3
   480 23 556 87 1005 310 1340 663 228 242 365 494 431 799 15 68 19 128 19 305
   0 208 -2 226 -28 330 -16 61 -45 153 -66 205 l-38 95 -763 3 -762 2 83 -56z"></path>
   </g>
   </svg>